<?xml version="1.0" encoding="utf-8"?>
<!-- Generator: Adobe Illustrator 18.1.1, SVG Export Plug-In . SVG Version: 6.00 Build 0)  -->
<svg xmlns="http://www.w3.org/2000/svg" xmlns:xlink="http://www.w3.org/1999/xlink" version="1.1" id="Layer_1" x="0px" y="0px" viewBox="0 0 50 50" enable-background="new 0 0 50 50" xml:space="preserve" width="100px" height="100px">
<path d="M20,7c1.1,0,2,0.9,2,2c0,1.1-0.9,2-2,2c-1.1,0-2-0.9-2-2C18,7.9,18.9,7,20,7z"/>
<path d="M30,39c1.1,0,2,0.9,2,2c0,1.1-0.9,2-2,2c-1.1,0-2-0.9-2-2C28,39.9,28.9,39,30,39z"/>
<path fill="none" stroke="#000000" stroke-width="2" stroke-miterlimit="10" d="M25,3c-7.8,0-10,3.7-10,6.1V13h10v3H9.1  C6,16,3,18.6,3,25s3,9,6.1,9H15v-5c0-2.2,1.8-4,4-4l12,0c2.2,0,4-1.8,4-4V9.1C35,6.6,32.8,3,25,3z"/>
<path fill="none" stroke="#000000" stroke-width="2" stroke-miterlimit="10" d="M25,47c7.8,0,10-3.7,10-6.1V37H25v-3h15.9  c3.1,0,6.1-2.6,6.1-9s-3-9-6.1-9H35v5c0,2.2-1.8,4-4,4l-12,0c-2.2,0-4,1.8-4,4v11.9C15,43.3,17.2,47,25,47z"/>
</svg>
